<svg xmlns="http://www.w3.org/2000/svg" viewBox="0 0 800 500" fill="none" aria-hidden="true">
  <defs>
    <linearGradient id="bg3" x1="0" y1="0" x2="800" y2="500" gradientUnits="userSpaceOnUse">
      <stop stop-color="#08120c"/><stop offset="1" stop-color="#040a07"/>
    </linearGradient>
    <radialGradient id="gl3" cx="0" cy="0" r="1" gradientTransform="translate(640 150) scale(400)" gradientUnits="userSpaceOnUse">
      <stop stop-color="#21e06b" stop-opacity=".55"/><stop offset="1" stop-color="#21e06b" stop-opacity="0"/>
    </radialGradient>
    <linearGradient id="st3" x1="0" y1="500" x2="800" y2="0" gradientUnits="userSpaceOnUse">
      <stop stop-color="#0c7a3a"/><stop offset=".5" stop-color="#21e06b"/><stop offset="1" stop-color="#9dffc4"/>
    </linearGradient>
  </defs>
  <rect width="800" height="500" fill="url(#bg3)"/>
  <rect width="800" height="500" fill="url(#gl3)"/>
  <path d="M0 0V500" stroke="#5ed691" stroke-opacity=".05"/>
  <path d="M50 0V500" stroke="#5ed691" stroke-opacity=".05"/>
  <path d="M100 0V500" stroke="#5ed691" stroke-opacity=".05"/>
  <path d="M150 0V500" stroke="#5ed691" stroke-opacity=".05"/>
  <path d="M200 0V500" stroke="#5ed691" stroke-opacity=".05"/>
  <path d="M250 0V500" stroke="#5ed691" stroke-opacity=".05"/>
  <path d="M300 0V500" stroke="#5ed691" stroke-opacity=".05"/>
  <path d="M350 0V500" stroke="#5ed691" stroke-opacity=".05"/>
  <path d="M400 0V500" stroke="#5ed691" stroke-opacity=".05"/>
  <path d="M450 0V500" stroke="#5ed691" stroke-opacity=".05"/>
  <path d="M500 0V500" stroke="#5ed691" stroke-opacity=".05"/>
  <path d="M550 0V500" stroke="#5ed691" stroke-opacity=".05"/>
  <path d="M600 0V500" stroke="#5ed691" stroke-opacity=".05"/>
  <path d="M650 0V500" stroke="#5ed691" stroke-opacity=".05"/>
  <path d="M700 0V500" stroke="#5ed691" stroke-opacity=".05"/>
  <path d="M750 0V500" stroke="#5ed691" stroke-opacity=".05"/>
  <path d="M800 0V500" stroke="#5ed691" stroke-opacity=".05"/>
  <path d="M0 0H800" stroke="#5ed691" stroke-opacity=".05"/>
  <path d="M0 50H800" stroke="#5ed691" stroke-opacity=".05"/>
  <path d="M0 100H800" stroke="#5ed691" stroke-opacity=".05"/>
  <path d="M0 150H800" stroke="#5ed691" stroke-opacity=".05"/>
  <path d="M0 200H800" stroke="#5ed691" stroke-opacity=".05"/>
  <path d="M0 250H800" stroke="#5ed691" stroke-opacity=".05"/>
  <path d="M0 300H800" stroke="#5ed691" stroke-opacity=".05"/>
  <path d="M0 350H800" stroke="#5ed691" stroke-opacity=".05"/>
  <path d="M0 400H800" stroke="#5ed691" stroke-opacity=".05"/>
  <path d="M0 450H800" stroke="#5ed691" stroke-opacity=".05"/>
  <path d="M0 500H800" stroke="#5ed691" stroke-opacity=".05"/>
  <rect x="120" y="120" width="330" height="92" rx="26" fill="#0e1a14" stroke="#5ed691" stroke-opacity=".35"/>
  <path d="M140 212v34l40-34z" fill="#0e1a14" stroke="#5ed691" stroke-opacity=".35"/>
  <rect x="152" y="150" width="240" height="12" rx="6" fill="#21e06b" opacity=".55"/>
  <rect x="152" y="176" width="160" height="12" rx="6" fill="#5ed691" opacity=".28"/>
  <rect x="360" y="286" width="330" height="92" rx="26" fill="url(#st3)" opacity=".16" stroke="#21e06b" stroke-opacity=".5"/>
  <path d="M670 378v34l-40-34z" fill="#0f2418" stroke="#21e06b" stroke-opacity=".4"/>
  <rect x="392" y="316" width="266" height="12" rx="6" fill="#9dffc4" opacity=".7"/>
  <rect x="392" y="342" width="180" height="12" rx="6" fill="#9dffc4" opacity=".35"/>
  <circle cx="640" cy="150" r="58" stroke="url(#st3)" stroke-width="3" opacity=".7"/>
  <circle cx="640" cy="150" r="90" stroke="#21e06b" stroke-opacity=".18" stroke-width="2"/>
  <circle cx="640" cy="150" r="20" fill="#21e06b"/>
  <rect x=".5" y=".5" width="799" height="499" stroke="#5ed691" stroke-opacity=".12"/>
</svg>
